<mxfile host="app.diagrams.net" modified="2023-01-23T08:22:10.365Z" agent="5.0 (Windows NT 10.0; Win64; x64) AppleWebKit/537.36 (KHTML, like Gecko) Chrome/109.0.0.0 Safari/537.36" etag="h94Fx0PUSE3i6Edzp7Hj" version="20.8.5" type="github">
  <diagram id="C5RBs43oDa-KdzZeNtuy" name="Page-1">
    <mxGraphModel dx="1434" dy="739" grid="1" gridSize="10" guides="1" tooltips="1" connect="1" arrows="1" fold="1" page="1" pageScale="1" pageWidth="827" pageHeight="1169" math="0" shadow="0">
      <root>
        <mxCell id="WIyWlLk6GJQsqaUBKTNV-0" />
        <mxCell id="WIyWlLk6GJQsqaUBKTNV-1" parent="WIyWlLk6GJQsqaUBKTNV-0" />
        <mxCell id="Ax2uFE5Mjws0leUT56tR-3" style="edgeStyle=orthogonalEdgeStyle;rounded=0;orthogonalLoop=1;jettySize=auto;html=1;" edge="1" parent="WIyWlLk6GJQsqaUBKTNV-1" source="Ax2uFE5Mjws0leUT56tR-1" target="Ax2uFE5Mjws0leUT56tR-2">
          <mxGeometry relative="1" as="geometry" />
        </mxCell>
        <mxCell id="Ax2uFE5Mjws0leUT56tR-1" value="start" style="ellipse;whiteSpace=wrap;html=1;" vertex="1" parent="WIyWlLk6GJQsqaUBKTNV-1">
          <mxGeometry x="310" y="30" width="120" height="80" as="geometry" />
        </mxCell>
        <mxCell id="Ax2uFE5Mjws0leUT56tR-5" style="edgeStyle=orthogonalEdgeStyle;rounded=0;orthogonalLoop=1;jettySize=auto;html=1;" edge="1" parent="WIyWlLk6GJQsqaUBKTNV-1" source="Ax2uFE5Mjws0leUT56tR-2" target="Ax2uFE5Mjws0leUT56tR-4">
          <mxGeometry relative="1" as="geometry" />
        </mxCell>
        <mxCell id="Ax2uFE5Mjws0leUT56tR-2" value="numbers" style="shape=parallelogram;perimeter=parallelogramPerimeter;whiteSpace=wrap;html=1;fixedSize=1;" vertex="1" parent="WIyWlLk6GJQsqaUBKTNV-1">
          <mxGeometry x="310" y="180" width="120" height="60" as="geometry" />
        </mxCell>
        <mxCell id="Ax2uFE5Mjws0leUT56tR-7" style="edgeStyle=orthogonalEdgeStyle;rounded=0;orthogonalLoop=1;jettySize=auto;html=1;" edge="1" parent="WIyWlLk6GJQsqaUBKTNV-1" source="Ax2uFE5Mjws0leUT56tR-4" target="Ax2uFE5Mjws0leUT56tR-6">
          <mxGeometry relative="1" as="geometry" />
        </mxCell>
        <mxCell id="Ax2uFE5Mjws0leUT56tR-4" value="count=0" style="rounded=0;whiteSpace=wrap;html=1;" vertex="1" parent="WIyWlLk6GJQsqaUBKTNV-1">
          <mxGeometry x="310" y="280" width="120" height="60" as="geometry" />
        </mxCell>
        <mxCell id="Ax2uFE5Mjws0leUT56tR-9" style="edgeStyle=orthogonalEdgeStyle;rounded=0;orthogonalLoop=1;jettySize=auto;html=1;" edge="1" parent="WIyWlLk6GJQsqaUBKTNV-1" source="Ax2uFE5Mjws0leUT56tR-6">
          <mxGeometry relative="1" as="geometry">
            <mxPoint x="370" y="525" as="targetPoint" />
          </mxGeometry>
        </mxCell>
        <mxCell id="Ax2uFE5Mjws0leUT56tR-18" style="edgeStyle=orthogonalEdgeStyle;rounded=0;orthogonalLoop=1;jettySize=auto;html=1;" edge="1" parent="WIyWlLk6GJQsqaUBKTNV-1" source="Ax2uFE5Mjws0leUT56tR-6" target="Ax2uFE5Mjws0leUT56tR-17">
          <mxGeometry relative="1" as="geometry" />
        </mxCell>
        <mxCell id="Ax2uFE5Mjws0leUT56tR-6" value="i=0 ; i&amp;lt;numsi,length ; i++" style="shape=hexagon;perimeter=hexagonPerimeter2;whiteSpace=wrap;html=1;fixedSize=1;" vertex="1" parent="WIyWlLk6GJQsqaUBKTNV-1">
          <mxGeometry x="310" y="390" width="120" height="80" as="geometry" />
        </mxCell>
        <mxCell id="Ax2uFE5Mjws0leUT56tR-16" style="edgeStyle=orthogonalEdgeStyle;rounded=0;orthogonalLoop=1;jettySize=auto;html=1;" edge="1" parent="WIyWlLk6GJQsqaUBKTNV-1" source="Ax2uFE5Mjws0leUT56tR-12">
          <mxGeometry relative="1" as="geometry">
            <mxPoint x="370" y="370" as="targetPoint" />
            <Array as="points">
              <mxPoint x="590" y="370" />
            </Array>
          </mxGeometry>
        </mxCell>
        <mxCell id="Ax2uFE5Mjws0leUT56tR-12" value="count++" style="rounded=0;whiteSpace=wrap;html=1;" vertex="1" parent="WIyWlLk6GJQsqaUBKTNV-1">
          <mxGeometry x="530" y="540" width="120" height="60" as="geometry" />
        </mxCell>
        <mxCell id="Ax2uFE5Mjws0leUT56tR-20" style="edgeStyle=orthogonalEdgeStyle;rounded=0;orthogonalLoop=1;jettySize=auto;html=1;" edge="1" parent="WIyWlLk6GJQsqaUBKTNV-1" source="Ax2uFE5Mjws0leUT56tR-17" target="Ax2uFE5Mjws0leUT56tR-19">
          <mxGeometry relative="1" as="geometry" />
        </mxCell>
        <mxCell id="Ax2uFE5Mjws0leUT56tR-17" value="count" style="shape=document;whiteSpace=wrap;html=1;boundedLbl=1;" vertex="1" parent="WIyWlLk6GJQsqaUBKTNV-1">
          <mxGeometry x="110" y="390" width="120" height="80" as="geometry" />
        </mxCell>
        <mxCell id="Ax2uFE5Mjws0leUT56tR-19" value="end" style="ellipse;whiteSpace=wrap;html=1;" vertex="1" parent="WIyWlLk6GJQsqaUBKTNV-1">
          <mxGeometry x="110" y="530" width="120" height="80" as="geometry" />
        </mxCell>
        <mxCell id="Ax2uFE5Mjws0leUT56tR-23" value="true" style="edgeStyle=orthogonalEdgeStyle;rounded=0;orthogonalLoop=1;jettySize=auto;html=1;" edge="1" parent="WIyWlLk6GJQsqaUBKTNV-1" target="Ax2uFE5Mjws0leUT56tR-12">
          <mxGeometry relative="1" as="geometry">
            <mxPoint x="430" y="570" as="sourcePoint" />
          </mxGeometry>
        </mxCell>
        <mxCell id="Ax2uFE5Mjws0leUT56tR-24" value="verilmis ededlerden cut olanlarin sayini tapan alqoritm" style="rounded=0;whiteSpace=wrap;html=1;" vertex="1" parent="WIyWlLk6GJQsqaUBKTNV-1">
          <mxGeometry x="30" y="40" width="210" height="60" as="geometry" />
        </mxCell>
        <mxCell id="Ax2uFE5Mjws0leUT56tR-26" style="edgeStyle=orthogonalEdgeStyle;rounded=0;orthogonalLoop=1;jettySize=auto;html=1;" edge="1" parent="WIyWlLk6GJQsqaUBKTNV-1" source="Ax2uFE5Mjws0leUT56tR-25">
          <mxGeometry relative="1" as="geometry">
            <mxPoint x="380" y="371" as="targetPoint" />
            <Array as="points">
              <mxPoint x="370" y="670" />
              <mxPoint x="720" y="670" />
              <mxPoint x="720" y="350" />
              <mxPoint x="380" y="350" />
            </Array>
          </mxGeometry>
        </mxCell>
        <mxCell id="Ax2uFE5Mjws0leUT56tR-25" value="numbers[i]%2==0" style="rhombus;whiteSpace=wrap;html=1;" vertex="1" parent="WIyWlLk6GJQsqaUBKTNV-1">
          <mxGeometry x="310" y="520" width="120" height="110" as="geometry" />
        </mxCell>
      </root>
    </mxGraphModel>
  </diagram>
</mxfile>
